<svg xmlns="http://www.w3.org/2000/svg" viewBox="0 0 720 420" role="img" aria-labelledby="title desc">
  <title id="title">Ossplate chestplate illustration</title>
  <desc id="desc">A bronze chestplate with shoulder guards on a warm background.</desc>
  <defs>
    <linearGradient id="bg" x1="0%" y1="0%" x2="100%" y2="100%">
      <stop offset="0%" stop-color="#f7ecdd"/>
      <stop offset="100%" stop-color="#dcb88b"/>
    </linearGradient>
    <linearGradient id="metal" x1="0%" y1="0%" x2="0%" y2="100%">
      <stop offset="0%" stop-color="#ddaf68"/>
      <stop offset="50%" stop-color="#b77735"/>
      <stop offset="100%" stop-color="#7b491c"/>
    </linearGradient>
    <linearGradient id="rim" x1="0%" y1="0%" x2="100%" y2="100%">
      <stop offset="0%" stop-color="#fff0bf"/>
      <stop offset="100%" stop-color="#a05d24"/>
    </linearGradient>
    <linearGradient id="highlight" x1="0%" y1="0%" x2="100%" y2="100%">
      <stop offset="0%" stop-color="#fff8de" stop-opacity="0.95"/>
      <stop offset="100%" stop-color="#fff8de" stop-opacity="0"/>
    </linearGradient>
    <filter id="shadow" x="-20%" y="-20%" width="140%" height="160%">
      <feDropShadow dx="0" dy="16" stdDeviation="12" flood-color="#673d18" flood-opacity="0.28"/>
    </filter>
  </defs>

  <rect width="720" height="420" fill="url(#bg)"/>
  <circle cx="110" cy="84" r="58" fill="#fff7de" opacity="0.4"/>
  <circle cx="607" cy="314" r="76" fill="#a86e33" opacity="0.12"/>

  <g filter="url(#shadow)" transform="translate(150 28)">
    <path d="M151 46c12-18 27-29 59-34 16-2 42-3 59-3s43 1 59 3c32 5 47 16 59 34l24 35c7 10 4 24-6 31l-22 16c-8 6-19 7-29 2l-27-13v90c0 60-26 102-58 129-32 26-64 39-91 45-27-6-59-19-91-45-32-27-58-69-58-129v-90l-27 13c-10 5-21 4-29-2l-22-16c-10-7-13-21-6-31z" fill="url(#metal)"/>
    <path d="M151 46c12-18 27-29 59-34 16-2 42-3 59-3s43 1 59 3c32 5 47 16 59 34l24 35c7 10 4 24-6 31l-22 16c-8 6-19 7-29 2l-27-13v90c0 60-26 102-58 129-32 26-64 39-91 45-27-6-59-19-91-45-32-27-58-69-58-129v-90l-27 13c-10 5-21 4-29-2l-22-16c-10-7-13-21-6-31z" fill="none" stroke="#6b4118" stroke-width="10" stroke-linejoin="round"/>
    <path d="M210 52c11-14 26-20 44-22 15-2 29-2 46-2s31 0 46 2c18 2 33 8 44 22l15 20c-41 18-92 27-105 29-13-2-64-11-105-29z" fill="#c78741" opacity="0.88"/>
    <path d="M126 74l32 16c10 5 21 4 30-2l20-13c18 9 43 16 72 20v204c-56-15-121-61-121-158V93c0-8-12-13-33-19z" fill="#845022" opacity="0.34"/>
    <path d="M474 74l-32 16c-10 5-21 4-30-2l-20-13c-18 9-43 16-72 20v204c56-15 121-61 121-158V93c0-8 12-13 33-19z" fill="#f0c27a" opacity="0.2"/>
    <path d="M300 92v214" stroke="#6b4118" stroke-width="8" stroke-linecap="round" opacity="0.82"/>
    <path d="M196 134c29 12 65 18 104 18s75-6 104-18" stroke="#6b4118" stroke-width="7" stroke-linecap="round" opacity="0.72"/>
    <path d="M206 215c24 9 56 14 94 14s70-5 94-14" stroke="#6b4118" stroke-width="6" stroke-linecap="round" opacity="0.62"/>
    <path d="M235 42c19 10 40 16 65 19-13 10-23 24-29 41-25-4-48-12-68-25 7-16 17-27 32-35z" fill="url(#highlight)" opacity="0.72"/>
    <path d="M300 61c25-3 46-9 65-19 15 8 25 19 32 35-20 13-43 21-68 25-6-17-16-31-29-41z" fill="url(#highlight)" opacity="0.5"/>
    <path d="M147 62l-41 58c-5 7-3 17 4 22l18 13c5 4 12 4 18 1l41-19-9-53c-2-11-14-21-31-22z" fill="url(#rim)" opacity="0.95"/>
    <path d="M453 62l41 58c5 7 3 17-4 22l-18 13c-5 4-12 4-18 1l-41-19 9-53c2-11 14-21 31-22z" fill="url(#rim)" opacity="0.95"/>
    <path d="M214 310c26 14 56 23 86 28 30-5 60-14 86-28" stroke="#f3d39a" stroke-width="6" stroke-linecap="round" opacity="0.45"/>
  </g>
</svg>
