<?xml version="1.0" encoding="utf-8"?>
<svg viewBox="0 0 512 512" xmlns="http://www.w3.org/2000/svg" role="img" aria-labelledby="title desc">
  <title id="title">Ossplate chest armor</title>
  <desc id="desc">A transparent-background chestplate silhouette constructed from binary digits with a small red OSS mark.</desc>
  <defs>
    <path id="armor-shape" d="M156.7 25.83L89 39.38c-.1 58.57-1.74 119.32-43.49 167.22C104.4 246.5 189 260.7 247 248.8v-99L108.3 88.22l7.4-16.44L256 134.2l140.3-62.42 7.4 16.44L265 149.8v99c58 11.9 142.6-2.3 201.5-42.2-41.8-47.9-43.4-108.65-43.5-167.22l-67.7-13.55c-12.9 13.88-20.6 28.15-32.9 40.53C308.9 79.78 289.5 89 256 89c-33.5 0-52.9-9.22-66.4-22.64-12.3-12.38-20-26.65-32.9-40.53zM53.88 232.9C75.96 281 96.07 336.6 102.7 392.8l65 22.8c4.2-52.7 28.2-104 63.7-146.1-55.1 6.3-122.7-5.8-177.52-36.6zm404.22 0c-54.8 30.8-122.4 42.9-177.5 36.6 35.5 42.1 59.5 93.4 63.7 146.1l65.2-22.9c6.6-56.8 26.6-111.8 48.6-159.8zM256 269c-40.5 43.1-67.7 97.9-70.7 152.7l61.7 21.6V336h18v107.3l61.7-21.6c-3.1-54.8-30.2-109.6-70.7-152.7zm151.7 143.4L297 451.1v18.8l110.2-44.1c.1-4.5.3-8.9.5-13.4zm-303.3.1c.3 4.5.4 8.9.5 13.4l110.1 44v-18.7l-110.6-38.7zM279 457.4l-23 8.1-23-8v19.6l23 9.2 23-9.2v-19.7z"/>
    <clipPath id="armor-clip">
      <use href="#armor-shape"/>
    </clipPath>
    <mask id="armor-binary-mask" maskUnits="userSpaceOnUse">
      <rect x="0" y="0" width="512" height="512" fill="#000"/>
      <use href="#armor-shape" fill="#fff"/>
      <rect x="286" y="156" width="92" height="48" rx="4" ry="4" fill="#000"/>
    </mask>
    <linearGradient id="binary-ink" x1="92" y1="40" x2="410" y2="470" gradientUnits="userSpaceOnUse">
      <stop offset="0" stop-color="#94A3B8"/>
      <stop offset=".52" stop-color="#CBD5E1"/>
      <stop offset="1" stop-color="#64748B"/>
    </linearGradient>
    <g id="glyph-zero" shape-rendering="crispEdges">
      <rect x="4" y="0" width="4" height="4"/>
      <rect x="8" y="0" width="4" height="4"/>
      <rect x="0" y="4" width="4" height="4"/>
      <rect x="12" y="4" width="4" height="4"/>
      <rect x="0" y="8" width="4" height="4"/>
      <rect x="12" y="8" width="4" height="4"/>
      <rect x="0" y="12" width="4" height="4"/>
      <rect x="12" y="12" width="4" height="4"/>
      <rect x="4" y="16" width="4" height="4"/>
      <rect x="8" y="16" width="4" height="4"/>
    </g>
    <g id="glyph-one" shape-rendering="crispEdges">
      <rect x="6" y="0" width="4" height="4"/>
      <rect x="2" y="4" width="4" height="4"/>
      <rect x="6" y="4" width="4" height="4"/>
      <rect x="6" y="8" width="4" height="4"/>
      <rect x="6" y="12" width="4" height="4"/>
      <rect x="2" y="16" width="4" height="4"/>
      <rect x="6" y="16" width="4" height="4"/>
      <rect x="10" y="16" width="4" height="4"/>
    </g>
    <pattern id="binary-pattern" width="144" height="24" patternUnits="userSpaceOnUse">
      <g fill="url(#binary-ink)">
        <use href="#glyph-one" x="0" y="2"/>
        <use href="#glyph-zero" x="18" y="2"/>
        <use href="#glyph-one" x="36" y="2"/>
        <use href="#glyph-one" x="54" y="2"/>
        <use href="#glyph-zero" x="72" y="2"/>
        <use href="#glyph-one" x="90" y="2"/>
        <use href="#glyph-zero" x="108" y="2"/>
        <use href="#glyph-zero" x="126" y="2"/>
      </g>
    </pattern>
  </defs>
  <g clip-path="url(#armor-clip)">
    <rect x="0" y="0" width="512" height="512" mask="url(#armor-binary-mask)" fill="url(#binary-pattern)"/>
    <g fill="#DC2626" shape-rendering="crispEdges" transform="translate(304 166)">
      <g transform="translate(0 0)">
        <use href="#glyph-zero"/>
      </g>
      <g transform="translate(22 0)">
        <rect x="4" y="0" width="4" height="4"/>
        <rect x="8" y="0" width="4" height="4"/>
        <rect x="0" y="4" width="4" height="4"/>
        <rect x="4" y="8" width="4" height="4"/>
        <rect x="8" y="8" width="4" height="4"/>
        <rect x="12" y="8" width="4" height="4"/>
        <rect x="12" y="12" width="4" height="4"/>
        <rect x="4" y="16" width="4" height="4"/>
        <rect x="8" y="16" width="4" height="4"/>
      </g>
      <g transform="translate(44 0)">
        <rect x="4" y="0" width="4" height="4"/>
        <rect x="8" y="0" width="4" height="4"/>
        <rect x="0" y="4" width="4" height="4"/>
        <rect x="4" y="8" width="4" height="4"/>
        <rect x="8" y="8" width="4" height="4"/>
        <rect x="12" y="8" width="4" height="4"/>
        <rect x="12" y="12" width="4" height="4"/>
        <rect x="4" y="16" width="4" height="4"/>
        <rect x="8" y="16" width="4" height="4"/>
      </g>
    </g>
  </g>
</svg>
